# xmcd
#
# Track frame offsets:
#	150
#	22879
#	41060
#	54946
#	72216
#	90361
#	110607
#	127637
#	144735
#	163789
#
# Disc length: 2422 seconds
#
# Revision: 0
# Processed by: cddbd v1.5.1PL0 Copyright (c) Steve Scherf et al.
# Submitted via: audiograbber 1.83.01
#
DISCID=7a09740a
DTITLE=Steppin' Country Vol. 02 - Steppin' Country Vol. 02
DYEAR=1996
DGENRE=Country
TTITLE0=Joe Diffie - Third Rock From The Sun [Extended Club Mix]
TTITLE1=Wade Hayes - Old Enough To Know Better [Extended Club Mix]
TTITLE2=Collin Raye - That's My Story [Extended Club Mix]
TTITLE3=Doug Stone - Born In The Dark [Extended Club Mix]
TTITLE4=Ken Mellons - Workin' For The Weekend [Extended Club Mix]
TTITLE5=Gibson/Miller Band - Mamas Don't Let Your Babies Grow Up To Be Cowboys 
TTITLE5=[Extended Club Mix]
TTITLE6=Rick Trevino - Bobbie Ann Mason [Extended Club Mix]
TTITLE7=Joe Diffie - Prop Me Up Beside The Jukebox (If I Die) [Extended Club Mi
TTITLE7=x]
TTITLE8=Ron Wallace - Cotton Country Queen [Extended Club Mix]
TTITLE9=Wade Hayes - Don't Stop [Extended Club Mix]
EXTD=
EXTT0=
EXTT1=
EXTT2=
EXTT3=
EXTT4=
EXTT5=
EXTT6=
EXTT7=
EXTT8=
EXTT9=
PLAYORDER=
